<svg version="1.1" xmlns="http://www.w3.org/2000/svg" xmlns:xlink="http://www.w3.org/1999/xlink" width="512.000000pt" height="512.000000pt" viewBox="0,0,256,256"><g fill="#ffffff" fill-rule="nonzero" stroke="none" stroke-width="1" stroke-linecap="butt" stroke-linejoin="miter" stroke-miterlimit="10" stroke-dasharray="" stroke-dashoffset="0" font-family="none" font-weight="none" font-size="none" text-anchor="none" style="mix-blend-mode: normal"><g transform="translate(0,0.00065) scale(0.5,0.5)"><g transform="translate(0,512) scale(0.1,-0.1)"><path d="M2400,5087c-168,-57 -290,-190 -335,-362c-13,-51 -15,-173 -15,-857v-798h-798c-867,0 -850,1 -967,-56c-115,-57 -216,-176 -255,-302c-27,-87 -27,-217 0,-304c39,-126 140,-245 255,-302c117,-57 100,-56 967,-56h798v-798c0,-867 -1,-850 56,-967c57,-115 176,-216 302,-255c87,-27 217,-27 304,0c126,39 245,140 302,255c57,117 56,100 56,967v798h798c870,0 854,-1 971,58c113,57 213,175 251,300c27,87 27,217 0,304c-38,125 -142,249 -253,302c-117,57 -103,56 -969,56h-798v798c0,867 1,850 -56,967c-57,115 -176,216 -302,255c-91,28 -225,27 -312,-3z"></path></g></g></g></svg>