<svg version="1.1" xmlns="http://www.w3.org/2000/svg" xmlns:xlink="http://www.w3.org/1999/xlink" width="512.000000pt" height="512.000000pt" viewBox="0,0,256,256"><g fill="#0563b1" fill-rule="nonzero" stroke="none" stroke-width="1" stroke-linecap="butt" stroke-linejoin="miter" stroke-miterlimit="10" stroke-dasharray="" stroke-dashoffset="0" font-family="none" font-weight="none" font-size="none" text-anchor="none" style="mix-blend-mode: normal"><g transform="translate(0.10125,-0.0119) scale(0.5,0.5)"><g transform="translate(0,512) scale(0.1,-0.1)"><path d="M480,4814c-187,-50 -341,-177 -421,-348c-62,-133 -60,-57 -57,-1739l3,-1532l27,-73c37,-101 82,-173 154,-246c73,-72 145,-117 246,-154l73,-27l1408,-3l1409,-2l91,-94c196,-200 399,-291 672,-303c259,-11 466,57 675,224c148,118 281,330 331,528c32,124 32,352 1,467c-80,294 -268,529 -524,654l-57,28l-3,1060l-3,1061l-23,70c-66,197 -218,351 -412,418l-65,22l-1735,2c-1498,2 -1743,0 -1790,-13zM3995,4656c165,-44 294,-173 337,-335c15,-59 17,-131 17,-641l1,-574l-237,236c-147,146 -248,239 -265,243c-15,4 -36,1 -50,-6c-12,-7 -287,-203 -610,-436c-323,-232 -592,-423 -598,-423c-5,0 -290,196 -632,436c-701,491 -640,459 -732,380c-28,-24 -278,-235 -556,-470l-505,-427l-3,803c-1,549 1,820 9,856c17,86 73,184 136,242c59,54 148,104 211,119c20,5 790,9 1732,10c1386,1 1704,-2 1745,-13zM2153,2823c573,-402 832,-578 854,-581c58,-7 103,63 74,117c-6,10 -87,71 -180,136c-94,66 -167,122 -163,126c4,4 243,176 532,384c289,208 531,382 538,388c10,8 76,-52 278,-254l264,-264v-313v-313l-57,8c-99,14 -301,8 -383,-11c-388,-90 -681,-395 -756,-784c-18,-95 -18,-270 0,-365c13,-64 43,-163 71,-229c7,-17 -60,-18 -1322,-18c-1453,0 -1384,-3 -1497,58c-65,35 -153,123 -188,188c-57,106 -58,116 -58,749v580l576,488c317,268 581,487 586,487c5,0 379,-260 831,-577zM4349,2080c376,-108 628,-457 607,-840c-3,-58 -13,-132 -22,-165c-97,-361 -398,-606 -765,-622c-390,-18 -721,217 -841,597c-20,65 -23,96 -23,225c0,169 12,231 71,354c114,242 328,410 594,467c94,19 284,12 379,-16z"></path><path d="M2381,4244c-84,-22 -150,-63 -227,-139c-109,-108 -154,-214 -154,-364c0,-153 46,-267 150,-371c74,-75 157,-122 251,-145c402,-94 756,302 615,690c-59,163 -183,278 -355,329c-68,20 -206,20 -280,0zM2683,4065c154,-76 238,-260 193,-421c-80,-277 -421,-365 -616,-158c-68,72 -92,129 -98,230c-9,167 72,296 226,361c49,20 70,23 147,20c75,-3 100,-8 148,-32z"></path><path d="M4085,1761c-16,-10 -108,-97 -202,-193c-152,-153 -173,-178 -173,-207c0,-43 38,-81 81,-81c27,0 49,16 146,112l113,112v-338v-337l25,-24c33,-33 70,-32 106,4l29,29v334v333l113,-113c95,-95 117,-112 144,-112c40,0 71,27 79,68c7,33 2,39 -192,233c-125,124 -207,199 -219,199c-11,0 -33,-9 -50,-19z"></path></g></g></g></svg>