<svg version="1.1" xmlns="http://www.w3.org/2000/svg" xmlns:xlink="http://www.w3.org/1999/xlink" width="512.000000pt" height="512.000000pt" viewBox="0,0,256,256"><g fill="#ffffff" fill-rule="nonzero" stroke="none" stroke-width="1" stroke-linecap="butt" stroke-linejoin="miter" stroke-miterlimit="10" stroke-dasharray="" stroke-dashoffset="0" font-family="none" font-weight="none" font-size="none" text-anchor="none" style="mix-blend-mode: normal"><g transform="translate(0.1102,0.05) scale(0.5,0.5)"><g transform="translate(0,512) scale(0.1,-0.1)"><path d="M883,4471c-58,-15 -137,-67 -175,-116c-74,-97 -69,40 -66,-1815l3,-1665l27,-51c40,-76 70,-107 140,-145l63,-34h1205h1205l63,34c70,38 100,69 140,145l27,51v492v491l-24,26c-48,51 -142,40 -170,-20c-8,-17 -11,-163 -11,-470c0,-385 -2,-450 -16,-479c-32,-69 41,-65 -1214,-65c-1255,0 -1182,-4 -1214,65c-14,30 -16,198 -16,1645c0,1447 2,1615 16,1645c32,69 -41,65 1214,65c1255,0 1182,4 1214,-65c14,-29 16,-99 16,-538c0,-490 1,-505 20,-530c30,-38 80,-52 123,-33c70,29 68,15 65,609l-3,532l-27,51c-40,76 -70,107 -140,145l-63,34l-1185,2c-652,0 -1199,-2 -1217,-6z"></path><path d="M3793,3294c-40,-20 -67,-74 -58,-116c5,-21 72,-98 236,-267l228,-236l-1262,-5c-1000,-4 -1267,-8 -1284,-18c-26,-15 -53,-61 -53,-92c0,-31 27,-77 53,-92c17,-10 285,-14 1286,-18l1265,-5l-231,-236c-252,-257 -260,-269 -226,-337c14,-28 28,-40 59,-51c38,-13 44,-13 76,5c19,10 147,135 285,276c295,302 308,321 308,458c0,131 -14,152 -309,457c-137,142 -263,266 -280,276c-37,21 -52,21 -93,1z"></path></g></g></g></svg>