<svg version="1.1" xmlns="http://www.w3.org/2000/svg" xmlns:xlink="http://www.w3.org/1999/xlink" width="512.000000pt" height="512.000000pt" viewBox="0,0,256,256"><g fill="#ffffff" fill-rule="nonzero" stroke="none" stroke-width="1" stroke-linecap="butt" stroke-linejoin="miter" stroke-miterlimit="10" stroke-dasharray="" stroke-dashoffset="0" font-family="none" font-weight="none" font-size="none" text-anchor="none" style="mix-blend-mode: normal"><g transform="translate(0.04991,-8.07018) scale(0.5,0.5)"><g transform="translate(0,512) scale(0.1,-0.1)"><path d="M2005,4631c-91,-23 -173,-90 -215,-176c-20,-43 -25,-68 -28,-172l-4,-123h-427c-351,0 -437,-3 -486,-15c-256,-67 -415,-329 -350,-580c23,-87 70,-167 134,-228c105,-100 209,-137 388,-137h113v-27c0,-16 31,-611 69,-1323c64,-1202 70,-1300 91,-1359c39,-116 108,-201 213,-265c112,-67 99,-66 1055,-66c534,0 880,4 913,10c162,30 304,157 359,321c21,59 27,157 91,1359c38,712 69,1307 69,1323v27h104c186,0 292,36 397,137c270,258 149,713 -216,808c-49,12 -135,15 -486,15h-427l-4,123c-4,116 -6,125 -38,185c-36,68 -78,109 -150,144c-45,23 -46,23 -590,25c-300,1 -558,-2 -575,-6zM3040,4240v-80h-480h-480v80v80h480h480zM4246,3814c53,-39 69,-71 69,-134c0,-63 -16,-95 -69,-134c-27,-21 -29,-21 -1664,-24c-1129,-2 -1648,0 -1674,8c-101,29 -140,168 -71,251c53,62 -62,59 1735,56c1646,-2 1647,-2 1674,-23zM3669,3168c0,-18 -30,-605 -67,-1304c-67,-1260 -68,-1270 -92,-1308c-14,-24 -39,-46 -64,-57c-39,-18 -84,-19 -885,-19c-834,0 -845,0 -887,21c-25,12 -53,35 -66,57c-21,35 -24,67 -90,1306c-37,699 -67,1286 -67,1304l-1,32h1110h1110z"></path><path d="M1855,2866c-41,-18 -83,-69 -90,-109c-3,-18 -4,-442 -3,-944c3,-903 3,-912 24,-939c39,-53 71,-69 134,-69c63,0 95,16 134,69c21,27 21,34 21,966c0,932 0,939 -21,966c-11,15 -32,37 -46,47c-33,25 -113,32 -153,13z"></path><path d="M2495,2866c-41,-18 -83,-69 -90,-109c-3,-18 -4,-442 -3,-944c3,-903 3,-912 24,-939c39,-53 71,-69 134,-69c63,0 95,16 134,69c21,27 21,34 21,966c0,932 0,939 -21,966c-11,15 -32,37 -46,47c-33,25 -113,32 -153,13z"></path><path d="M3135,2866c-41,-18 -83,-69 -90,-109c-3,-18 -4,-442 -3,-944c3,-903 3,-912 24,-939c39,-53 71,-69 134,-69c63,0 95,16 134,69c21,27 21,34 21,966c0,932 0,939 -21,966c-11,15 -32,37 -46,47c-33,25 -113,32 -153,13z"></path></g></g></g></svg>