<svg version="1.1" xmlns="http://www.w3.org/2000/svg" xmlns:xlink="http://www.w3.org/1999/xlink" width="512.000000pt" height="512.000000pt" viewBox="0,0,256,256"><g fill="#0563b1" fill-rule="nonzero" stroke="none" stroke-width="1" stroke-linecap="butt" stroke-linejoin="miter" stroke-miterlimit="10" stroke-dasharray="" stroke-dashoffset="0" font-family="none" font-weight="none" font-size="none" text-anchor="none" style="mix-blend-mode: normal"><g transform="translate(3.65872,-0.0251) scale(0.5,0.5)"><g transform="translate(0,512) scale(0.1,-0.1)"><path d="M1405,5101c-74,-34 -125,-111 -125,-187c0,-100 -44,-51 950,-1049c860,-863 929,-935 964,-1002c74,-146 95,-307 56,-457c-11,-42 -36,-109 -56,-149c-35,-67 -104,-139 -964,-1002c-997,-1001 -950,-949 -950,-1051c1,-110 102,-204 220,-204c88,0 86,-1 1046,961c561,563 929,940 958,980c64,93 132,240 163,356c24,87 27,116 27,263c0,147 -3,176 -27,265c-36,134 -119,300 -200,400c-36,44 -470,483 -964,976c-779,778 -903,897 -939,907c-59,17 -113,14 -159,-7z"></path></g></g></g></svg>