<svg version="1.1" xmlns="http://www.w3.org/2000/svg" xmlns:xlink="http://www.w3.org/1999/xlink" width="512.000000pt" height="512.000000pt" viewBox="0,0,256,256"><g fill="#ffffff" fill-rule="nonzero" stroke="none" stroke-width="1" stroke-linecap="butt" stroke-linejoin="miter" stroke-miterlimit="10" stroke-dasharray="" stroke-dashoffset="0" font-family="none" font-weight="none" font-size="none" text-anchor="none" style="mix-blend-mode: normal"><g transform="translate(-0.0149,0.08844) scale(0.5,0.5)"><g transform="translate(0,512) scale(0.1,-0.1)"><path d="M4069,5102c-36,-10 -91,-33 -121,-51c-40,-24 -558,-537 -1792,-1770l-1736,-1736l-211,-625c-196,-581 -210,-629 -206,-681c11,-135 115,-233 247,-234c59,0 124,20 681,208l615,208l1746,1747c1641,1643 1748,1751 1776,1812c77,166 65,346 -34,495c-18,28 -149,165 -291,305c-274,272 -301,292 -428,325c-76,19 -163,18 -246,-3zM4310,4864c44,-20 101,-72 292,-262c260,-260 288,-298 288,-398c0,-103 -19,-135 -186,-304l-153,-155l-403,403l-403,403l155,153c169,167 196,184 300,185c39,1 71,-7 110,-25zM2816,2810c-939,-940 -1175,-1181 -1181,-1207c-15,-74 51,-140 128,-130c38,5 108,73 1214,1179l1173,1173l120,-120l120,-120l-1412,-1412l-1412,-1412l-22,72c-89,297 -271,520 -529,647c-55,27 -133,59 -174,71l-73,22l1408,1408l1409,1409l202,-202l203,-203zM686,1354c286,-58 503,-236 608,-496c31,-80 55,-170 59,-222l2,-39l-309,-103c-170,-57 -310,-103 -311,-101c-1,1 -17,31 -36,67c-42,79 -143,182 -229,232c-35,21 -68,39 -72,40c-7,3 199,638 207,638c1,0 38,-7 81,-16zM360,493c62,-41 150,-140 150,-169c0,-7 -53,-30 -130,-55c-103,-34 -132,-41 -142,-31c-10,10 -3,39 31,142c23,72 48,130 54,130c7,0 24,-7 37,-17z"></path></g></g></g></svg>