<svg version="1.1" xmlns="http://www.w3.org/2000/svg" xmlns:xlink="http://www.w3.org/1999/xlink" width="512.000000pt" height="512.000000pt" viewBox="0,0,256,256"><g fill="#0563b1" fill-rule="nonzero" stroke="none" stroke-width="1" stroke-linecap="butt" stroke-linejoin="miter" stroke-miterlimit="10" stroke-dasharray="" stroke-dashoffset="0" font-family="none" font-weight="none" font-size="none" text-anchor="none" style="mix-blend-mode: normal"><g transform="translate(-5.40431,-0.03647) scale(0.5,0.5)"><g transform="translate(0,512) scale(0.1,-0.1)"><path d="M3575,5101c-54,-25 -1875,-1850 -1932,-1936c-124,-186 -183,-380 -183,-605c0,-239 72,-459 209,-640c28,-36 463,-478 968,-982c983,-981 935,-938 1034,-938c57,0 137,46 169,97c36,56 44,106 29,169c-11,47 -45,82 -924,964c-502,503 -927,937 -944,963c-78,115 -113,231 -113,367c0,136 35,251 112,367c18,26 442,458 942,959c848,849 910,913 924,959c19,64 10,121 -27,180c-53,83 -174,118 -264,76z"></path></g></g></g></svg>