<svg version="1.1" xmlns="http://www.w3.org/2000/svg" xmlns:xlink="http://www.w3.org/1999/xlink" width="512.000000pt" height="512.000000pt" viewBox="0,0,256,256"><g fill="#0563b0" fill-rule="nonzero" stroke="none" stroke-width="1" stroke-linecap="butt" stroke-linejoin="miter" stroke-miterlimit="10" stroke-dasharray="" stroke-dashoffset="0" font-family="none" font-weight="none" font-size="none" text-anchor="none" style="mix-blend-mode: normal"><g transform="translate(0.02844,0.05) scale(0.5,0.5)"><g transform="translate(0,512) scale(0.1,-0.1)"><path d="M245,4471c-90,-22 -173,-90 -215,-176c-34,-69 -35,-198 -2,-265c34,-71 75,-113 144,-151l63,-34h2325h2325l51,27c76,40 107,70 145,140c31,58 34,70 34,148c0,78 -3,90 -34,148c-37,69 -79,109 -151,144l-45,23l-2305,2c-1268,0 -2318,-2 -2335,-6z"></path><path d="M245,2871c-90,-22 -173,-90 -215,-176c-34,-69 -35,-198 -2,-265c34,-71 75,-113 144,-151l63,-34h2325h2325l51,27c76,40 107,70 145,140c31,58 34,70 34,148c0,78 -3,90 -34,148c-37,69 -79,109 -151,144l-45,23l-2305,2c-1268,0 -2318,-2 -2335,-6z"></path><path d="M245,1271c-90,-22 -173,-90 -215,-176c-34,-69 -35,-198 -2,-265c34,-71 75,-113 144,-151l63,-34h2325h2325l51,27c76,40 107,70 145,140c31,58 34,70 34,148c0,78 -3,90 -34,148c-37,69 -79,109 -151,144l-45,23l-2305,2c-1268,0 -2318,-2 -2335,-6z"></path></g></g></g></svg>